<?xml version="1.0" encoding="UTF-8" standalone="no"?>
<!-- Created with Inkscape (http://www.inkscape.org/) -->

<svg
   width="219.07007mm"
   height="98.32766mm"
   viewBox="0 0 219.07007 98.32766"
   version="1.1"
   id="svg1"
   xml:space="preserve"
   xmlns="http://www.w3.org/2000/svg"
   xmlns:svg="http://www.w3.org/2000/svg"><defs
     id="defs1"><marker
       style="overflow:visible"
       id="marker39"
       refX="0"
       refY="0"
       orient="auto-start-reverse"
       markerWidth="1"
       markerHeight="1"
       viewBox="0 0 1 1"
       preserveAspectRatio="xMidYMid"><path
         style="fill:none;stroke:context-stroke;stroke-width:1;stroke-linecap:butt"
         d="M 3,-3 0,0 3,3"
         transform="rotate(180,0.125,0)"
         id="path39" /></marker><marker
       style="overflow:visible"
       id="marker133"
       refX="0"
       refY="0"
       orient="auto-start-reverse"
       markerWidth="1"
       markerHeight="1"
       viewBox="0 0 1 1"
       preserveAspectRatio="xMidYMid"><path
         style="fill:none;stroke:context-stroke;stroke-width:1;stroke-linecap:butt"
         d="M 3,-3 0,0 3,3"
         transform="rotate(180,0.125,0)"
         id="path133" /></marker></defs><g
     id="layer1"
     transform="translate(162.17859,723.81923)"><g
       id="g348"
       transform="matrix(0.26458333,0,0,0.26458333,-7195.6438,-512.00991)"><ellipse
         style="fill:#e6ebf7;fill-opacity:1;fill-rule:evenodd;stroke:#999999;stroke-width:1.5;stroke-linecap:round;stroke-linejoin:round;stroke-dasharray:none;stroke-dashoffset:0;paint-order:stroke fill markers"
         id="path227"
         cx="23420.203"
         cy="-14212.621"
         rx="11.8617"
         ry="41.735611"
         transform="rotate(29.856533)" /><circle
         style="fill:none;fill-opacity:1;fill-rule:evenodd;stroke:#999999;stroke-width:1.5;stroke-linecap:round;stroke-linejoin:round;stroke-dasharray:none;stroke-dashoffset:0;paint-order:stroke fill markers"
         id="path228"
         cx="26966.592"
         cy="-515.20703"
         r="18.890856" /><circle
         style="fill:none;fill-opacity:1;fill-rule:evenodd;stroke:#999999;stroke-width:1.5;stroke-linecap:round;stroke-linejoin:round;stroke-dasharray:none;stroke-dashoffset:0;paint-order:stroke fill markers"
         id="path229"
         cx="26610.064"
         cy="-630.02875"
         r="14.497634" /><path
         style="fill:none;fill-opacity:1;fill-rule:evenodd;stroke:#999999;stroke-width:1.5;stroke-linecap:round;stroke-linejoin:round;stroke-dasharray:none;stroke-dashoffset:0;paint-order:stroke fill markers"
         d="m 26611.505,-587.81314 h 630.866"
         id="path231" /><path
         style="fill:none;fill-opacity:1;fill-rule:evenodd;stroke:#999999;stroke-width:1.5;stroke-linecap:round;stroke-linejoin:round;stroke-dasharray:none;stroke-dashoffset:0;paint-order:stroke fill markers"
         d="m 26750.782,-745.96914 v 316.312"
         id="path232" /><path
         style="fill:none;fill-opacity:1;fill-rule:evenodd;stroke:#999999;stroke-width:1.5;stroke-linecap:round;stroke-linejoin:round;stroke-dasharray:none;stroke-dashoffset:0;marker-end:url(#marker133);paint-order:stroke fill markers"
         d="m 26835.559,-492.0409 266.229,-166.0638"
         id="path233" /><path
         style="fill:none;fill-opacity:1;fill-rule:evenodd;stroke:#999999;stroke-width:1.5;stroke-linecap:round;stroke-linejoin:round;stroke-dasharray:none;stroke-dashoffset:0;marker-end:url(#marker133);paint-order:stroke fill markers"
         d="m 26897.064,-620.32299 181.879,-70.29155"
         id="path234" /><path
         style="fill:none;fill-opacity:1;fill-rule:evenodd;stroke:#999999;stroke-width:1.64892;stroke-linecap:round;stroke-linejoin:round;stroke-dasharray:none;stroke-dashoffset:0;paint-order:stroke fill markers"
         id="path235"
         d="m 27178.23,-745.18541 56.391,97.67192 -112.781,-10e-6 z"
         transform="matrix(0.88314012,0,0,0.93702888,3225.6882,-73.284494)" /><path
         style="fill:none;fill-opacity:1;fill-rule:evenodd;stroke:#999999;stroke-width:1.5;stroke-linecap:round;stroke-linejoin:round;stroke-dasharray:none;stroke-dashoffset:0;paint-order:stroke fill markers"
         d="m 27041.162,-550.03143 158.221,-168.49676"
         id="path236" /><path
         style="fill:none;fill-opacity:1;fill-rule:evenodd;stroke:#0066cc;stroke-width:1.5;stroke-linecap:round;stroke-linejoin:round;stroke-dasharray:none;stroke-dashoffset:0;paint-order:stroke fill markers"
         d="m 27101.788,-658.1047 96.744,-59.5172"
         id="path237" /><path
         style="fill:none;fill-opacity:1;fill-rule:evenodd;stroke:#0066cc;stroke-width:1.5;stroke-linecap:round;stroke-linejoin:round;stroke-dasharray:none;stroke-dashoffset:0;paint-order:stroke fill markers"
         d="m 27078.943,-690.61454 132.583,-50.8866"
         id="path238" /><path
         style="fill:none;fill-opacity:1;fill-rule:evenodd;stroke:#999999;stroke-width:1.5;stroke-linecap:round;stroke-linejoin:round;stroke-dasharray:4.5, 4.5;stroke-dashoffset:0;paint-order:stroke fill markers"
         d="m 27199.383,-718.52819 -58.091,-56.53789"
         id="path239" /><path
         style="fill:none;fill-opacity:1;fill-rule:evenodd;stroke:#999999;stroke-width:1.5;stroke-linecap:round;stroke-linejoin:round;stroke-dasharray:none;stroke-dashoffset:0;paint-order:stroke fill markers"
         d="m 27240.791,-747.80649 -41.642,29.05059"
         id="path240" /><path
         style="fill:none;fill-opacity:1;fill-rule:evenodd;stroke:#999999;stroke-width:1.5;stroke-linecap:round;stroke-linejoin:round;stroke-dasharray:none;stroke-dashoffset:0;paint-order:stroke fill markers"
         d="m 27211.526,-741.50104 29.265,-6.30545"
         id="path241" /><path
         style="fill:none;fill-opacity:1;fill-rule:evenodd;stroke:#999999;stroke-width:1.5;stroke-linecap:round;stroke-linejoin:round;stroke-dasharray:4.5, 4.5;stroke-dashoffset:0;paint-order:stroke fill markers"
         d="m 27240.791,-747.80649 46.505,-52.7327"
         id="path242" /><path
         style="fill:none;fill-opacity:1;fill-rule:evenodd;stroke:#0066cc;stroke-width:1.5;stroke-linecap:round;stroke-linejoin:round;stroke-dasharray:none;stroke-dashoffset:0;marker-end:url(#marker133);paint-order:stroke fill markers"
         d="m 27240.791,-747.80649 108.946,35.18061"
         id="path243" /><path
         style="fill:none;fill-opacity:1;fill-rule:evenodd;stroke:#999999;stroke-width:1.5;stroke-linecap:round;stroke-linejoin:round;stroke-dasharray:none;stroke-dashoffset:0;paint-order:stroke fill markers"
         d="m 27198.532,-717.62188 54.242,-8.16216"
         id="path244" /><path
         style="fill:none;fill-opacity:1;fill-rule:evenodd;stroke:#999999;stroke-width:1.5;stroke-linecap:round;stroke-linejoin:round;stroke-dasharray:none;stroke-dashoffset:0;marker-end:url(#marker39);paint-order:stroke fill markers"
         d="m 27252.774,-725.78404 82.051,59.44467"
         id="path245" /><path
         style="fill:none;fill-opacity:1;fill-rule:evenodd;stroke:#0066cc;stroke-width:1.5;stroke-linecap:round;stroke-linejoin:round;stroke-dasharray:none;stroke-dashoffset:0;paint-order:stroke fill markers"
         d="m 27349.737,-712.62588 53.742,17.70692"
         id="path246" /><path
         style="fill:none;fill-opacity:1;fill-rule:evenodd;stroke:#999999;stroke-width:1.5;stroke-linecap:round;stroke-linejoin:round;stroke-dasharray:none;stroke-dashoffset:0;paint-order:stroke fill markers"
         d="m 27334.825,-666.33937 41.057,31.09291"
         id="path247" /><path
         style="fill:#e8edf5;fill-opacity:1;fill-rule:evenodd;stroke:#999999;stroke-width:1.5;stroke-linecap:round;stroke-linejoin:round;stroke-dasharray:none;stroke-dashoffset:0;paint-order:stroke fill markers"
         d="m 26655.742,-521.38931 6.01,-10.21946 45.45,55.38957 -16.867,7.14113 z"
         id="path248" /><path
         style="fill:#e8edf5;fill-opacity:1;fill-rule:evenodd;stroke:#999999;stroke-width:1.5;stroke-linecap:round;stroke-linejoin:round;stroke-dasharray:none;stroke-dashoffset:0;marker-end:url(#marker133);paint-order:stroke fill markers"
         d="m 26671.441,-546.52878 -57.293,88.2312"
         id="path249" /><path
         style="fill:#e8edf5;fill-opacity:1;fill-rule:evenodd;stroke:#999999;stroke-width:1.5;stroke-linecap:round;stroke-linejoin:round;stroke-dasharray:none;stroke-dashoffset:0;paint-order:stroke fill markers"
         d="m 26786.458,-652.09619 79.526,-79.52581"
         id="path250" /><path
         style="fill:#e8edf5;fill-opacity:1;fill-rule:evenodd;stroke:#999999;stroke-width:1.5;stroke-linecap:round;stroke-linejoin:round;stroke-dasharray:none;stroke-dashoffset:0;paint-order:stroke fill markers"
         d="m 26772.169,-731.622 92.573,92.57302"
         id="path251" /><path
         style="fill:none;fill-opacity:1;fill-rule:evenodd;stroke:#999999;stroke-width:1.5;stroke-linecap:round;stroke-linejoin:round;stroke-dasharray:none;stroke-dashoffset:0;paint-order:stroke fill markers"
         d="m 26761.607,-691.8591 25.162,-25.16266 h 64.615 v 64.61478 l -28.58,28.57978"
         id="path252" /><path
         style="fill:none;fill-opacity:1;fill-rule:evenodd;stroke:#999999;stroke-width:1.5;stroke-linecap:round;stroke-linejoin:round;stroke-dasharray:none;stroke-dashoffset:0;paint-order:stroke fill markers"
         d="m 26609.516,-655.28982 v 50.08274"
         id="path253" /><path
         style="fill:none;fill-opacity:1;fill-rule:evenodd;stroke:#999999;stroke-width:1.5;stroke-linecap:round;stroke-linejoin:round;stroke-dasharray:none;stroke-dashoffset:0;paint-order:stroke fill markers"
         d="m 26583.926,-630.24845 h 51.51"
         id="path254" /><path
         style="fill:none;fill-opacity:1;fill-rule:evenodd;stroke:#999999;stroke-width:1.5;stroke-linecap:round;stroke-linejoin:round;stroke-dasharray:none;stroke-dashoffset:0;paint-order:stroke fill markers"
         d="m 26927.191,-554.73078 89.622,89.62187"
         id="path255" /><path
         style="fill:none;fill-opacity:1;fill-rule:evenodd;stroke:#999999;stroke-width:1.5;stroke-linecap:round;stroke-linejoin:round;stroke-dasharray:none;stroke-dashoffset:0;paint-order:stroke fill markers"
         d="m 27016.114,-565.21528 -99.408,99.40727"
         id="path256" /><g
         id="g79-1"
         transform="matrix(0.46875558,0,0,0.46875558,27515.652,-2178.8221)"
         style="stroke-width:2.13331"><path
           id="path33-9-9"
           style="fill:#3399ff;fill-opacity:1;stroke:none;stroke-width:2.13331"
           d="m -1388.5915,3306.1433 c -11.7127,0.1041 -24.5262,12.7194 -24.5954,27.2818 l 0.2934,124.3541 c -0.2934,14.7827 13.441,23.5115 25.8853,23.428 l 124.1639,0.064 c 13.9666,0.018 26.7422,-12.4306 26.6657,-26.1336 l 0.016,-122.1194 c 0.056,-15.8678 -13.1478,-26.7418 -24.5664,-26.8754 h -63.9313 z m 128.1884,20.8515 c -46.3651,38.0526 -129.4758,106.6098 -131.6228,108.3915 v -101.6258 c 0.015,-3.242 2.0866,-6.3587 5.9981,-6.4819 z m 3.6182,24.0569 0.01,101.6352 c 0.033,4.4662 -2.636,7.7159 -7.1268,7.7334 l -125.5892,0.287 c 7.101,-5.4478 130.9186,-108.1685 132.7061,-109.6556 z" /><path
           id="path68-0-4"
           style="fill:#000000;fill-opacity:1;stroke:none;stroke-width:41.363;stroke-linecap:square;stroke-opacity:1"
           d="m -1936.1619,3300.8481 105.8728,181.2672 29.3281,0.069 104.617,-181.3358 h -40.9054 l -78.6024,138.7575 -81.4626,-138.6888 z m 259.6197,39.1104 c -13.7344,0 -27.4688,13.4722 -27.4686,26.9462 l -0.3032,83.6348 c 0,15.8858 13.8127,30.6421 28.8295,30.6934 l 114.9153,0.058 v -32.7541 l -110.1586,-0.2677 c -0.098,-6.9568 -0.1924,-13.9137 -0.287,-20.8707 h 110.4456 v -58.9523 c 0,-14.2484 -13.6037,-28.497 -27.2075,-28.4878 z m 5.55,33.0153 77.4012,0.2708 c 0.098,6.9557 0.1924,13.9116 0.287,20.8675 h -77.6884 z m 128.9162,-4.1693 c 0,-14.5677 15.4542,-29.1355 30.9084,-29.1353 l 81.3657,0.2883 v 32.7576 l -79.5165,0.2708 v 108.3048 h -32.7576 z" /></g><path
         style="fill:none;fill-opacity:1;fill-rule:evenodd;stroke:#999999;stroke-width:1.7068;stroke-linecap:round;stroke-linejoin:round;stroke-dasharray:none;stroke-dashoffset:0;paint-order:stroke fill markers"
         id="path258"
         d="m 26669.838,-426.27263 -73.559,0 36.78,-63.70371 z"
         transform="matrix(0.94056597,0,0,0.82116475,1605.5931,-119.03801)" /></g></g></svg>
