<?xml version="1.0" encoding="UTF-8" standalone="no"?>
<svg
   viewBox="0 0 100 100"
   version="1.1"
   id="svg1"
   width="100"
   height="100"
   xml:space="preserve"
   xmlns="http://www.w3.org/2000/svg"
   xmlns:svg="http://www.w3.org/2000/svg"><defs
     id="defs1" /><path
     id="path38"
     style="fill:#66b2ff;fill-rule:evenodd;stroke:none;stroke-linecap:round;stroke-linejoin:round"
     d="M 10.000002,-3.1250001e-5 C 4.4600013,-3.1250001e-5 1.2500002e-6,4.4599688 1.2500002e-6,9.9999688 V 89.999969 c 0,5.54 4.4600000499998,10 10.0000007499998,10 h 80 c 5.54,0 9.999998,-4.46 9.999998,-10 V 9.9999688 c 0,-5.54 -4.459998,-10.000000050001 -9.999998,-10.000000050001 z m 6.5,10.000000050001 h 73.5 l -79.94141,67.1094002 -0.0527,-60.6094 a 6.4943903,6.4943903 0 0 1 6.49414,-6.5000002 z m 73.44336,12.8907002 0.0508,60.6093 a 6.4943903,6.4943903 0 0 1 -6.49414,6.5 h -73.5 z" /></svg>
